<?xml version="1.0" encoding="UTF-8"?>
<svg id="Layer_2" data-name="Layer 2" xmlns="http://www.w3.org/2000/svg" viewBox="0 0 534.12 57.17">
  <g id="Layer_1-2" data-name="Layer 1">
    <g>
      <path d="M111.07,52.35c.98,1.35.04,3.71-.62,4.34-.62.58-2.4.35-3.38-.72l-13.85-15.28c-2.15-1.66-9.2-1.8-10.97.23l-12.22,14.02c-1.16,1.33-2.06,2.32-3.64,2.09-8.61-1.23,7.45-13.29,9.24-19.6,1.39-4.9,1.37-12.69-.08-17.65-1.85-6.3-13.55-13.3-11.03-17.91.54-.99,3.84-1.64,4.7-.58l12.58,15.48c4.02.43,7.73.26,12.09.02l12.35-14.59c1.04-1.23,2.61-1.37,4.02-1.28s1.9,2.94.77,4.47l-10.94,14.72c-1.56,4.46-1.42,12.36-.03,17.09l11.01,15.17Z" style="fill: #fff;"/>
      <path d="M211.97,55.7c-.02,2.35-4.23.99-5.2-.26l-33.15-42.61-.61,41.89c-.02,1.34-2.15,2.12-2.94,2.28-1.24.25-2.78-.96-2.78-2.91l.07-52.05c0-1.24,2.79-1.22,3.7-1.15,1.42.11,2.2,1.53,3.3,2.95l32.42,41.67.57-44.54c2.22-.25,3.57-.16,4.98,1.01l-.37,53.71Z" style="fill: #fff;"/>
      <path d="M522.93,56.14c-5.92,1.42-13.45,1.14-19.06.07-7.48-1.44-12.34-8.99-11.22-15.75.34-2.07,4.27-2.08,5.37-1.4.18,4,1.78,7.38,4.1,9.59,3.27,3.12,7.15,3.01,11.64,3.29,6.78.43,13.8-3.06,14.23-10.5.33-5.73-5.12-10.16-10.34-10.28l-12.92-.3c-7.5-.17-12.34-7.99-12.41-14.83s4.85-14.83,12.48-14.81l17.79.05c7.7.02,12.68,9.47,11.3,16.32-8.15,5.89-3-8.54-13.61-10.96-4.94-1.13-10.72-1.18-15.76.49-4.5,1.5-6.9,7.56-5.6,11.18,1.74,4.87,5.36,7.67,10.75,7.69l10.89.03c7.12.02,12.76,6.76,13.46,13.34.73,6.78-3.02,14.83-11.09,16.77Z" style="fill: #fff;"/>
      <path d="M462.12,2.87l-.29,34.35c-.1,11.81-10.67,19.5-22.2,19.77-10.44.25-22.28-6.49-22.4-17.56l-.38-37.63c-.01-1.08,1.86-1.65,2.52-1.67.82-.03,2.66.34,2.68,1.67l.51,34.52c.12,8.21,7.38,14.07,15.1,14.99,6.59.79,16.24-4.23,17.34-12.03l.78-36.69c.03-1.36,2.39-2.65,3.38-2.59s2.98,1.32,2.97,2.87Z" style="fill: #fff;"/>
      <path d="M5.53,29.57c.59,12.99,12.3,23.1,25.05,22.12,9.72-.75,14.6-9.19,17.94-7.25,3.98,2.31-3.06,13.16-21.96,12.62C12.58,56.66,1.41,45.53.14,31.75-1.37,15.35,9.23,2.1,25.47.42c15.82-1.63,26.76,9.08,23.8,12.32-.66.72-3.36.54-4.51.28-7.69-8.05-18.91-9.44-28.78-3.1-6.13,3.94-10.81,11.69-10.45,19.64Z" style="fill: #fff;"/>
      <path d="M292.2,30.88h-39.93c-.48-1.36-.17-4.78.82-4.78l37.49-.19c1.23,0,2.41,2.06,1.62,4.97Z" style="fill: #fff;"/>
      <path d="M291.85,5.99l-38.76-.09c-1.06,0-1.39-3.73-.37-4.71l39.4-.25c.2,1.54.29,2.59-.27,5.05Z" style="fill: #fff;"/>
      <path d="M291.65,56.83l-38.3-.13c-1.24,0-1.62-3.66-1.01-4.9l39.8-.03c.21,1.66.28,2.73-.49,5.06Z" style="fill: #fff;"/>
      <path d="M365.51,23.24c-2.29-.7-3.79-2.23-4.81-4.73L379.33.47c.94-.91,3.76-.02,4.47.73,1,1.06.51,3.52-.73,4.74l-17.56,17.3Z" style="fill: #fff;"/>
      <path d="M379.36,56.97l-17.57-17.56c.74-2.32,2.43-3.97,4.82-4.8l17.35,17.46c.88.89.29,3.33-.33,4.02-.66.72-2.15,1.13-4.28.88Z" style="fill: #fff;"/>
      <path d="M348.79,16.9c1.31,1.31-.04,3.05-.52,3.76-.58.85-2.77,2.34-3.98,1.13l-16.85-16.78c-1.25-1.24-.02-3.5.99-4.07,1.4-.79,3.15-1.26,4.72.31l15.64,15.65Z" style="fill: #fff;"/>
      <path d="M331.58,56.69c-.99.97-2.93.21-3.61-.04-.85-.31-1.65-3.25-.86-4.07l16.55-17.06c2.31.99,3.48,2.18,4.95,4.46l-17.03,16.71Z" style="fill: #fff;"/>
    </g>
  </g>
</svg>